<svg width="138" height="28" viewBox="0 0 138 28" fill="none" xmlns="http://www.w3.org/2000/svg">
<g clip-path="url(#clip0_1661_7452)">
<path fill-rule="evenodd" clip-rule="evenodd" d="M11.2582 17.7875C11.2582 19.6688 9.67759 21.2592 7.78125 21.2592V28C13.4703 28 18.0822 23.4248 18.0822 17.781L11.2582 17.7875Z" fill="#CC0000"/>
<path d="M18.0799 17.8165H11.2559V10.3524L18.0799 11.3796V17.8165Z" fill="#CC0000"/>
<path d="M8.05461 21.2555V28H3.79688L4.89566 21.2555H8.05461Z" fill="#CC0000"/>
<path fill-rule="evenodd" clip-rule="evenodd" d="M6.88235 10.2078C6.88235 8.32654 8.4046 6.81265 10.3009 6.81265V0C4.6119 -9.8679e-07 9.94708e-07 4.5752 0 10.219L6.88235 10.2078Z" fill="#0093DD"/>
<path d="M0 10.179H6.88235V17.5851L0 16.5659V10.179Z" fill="#0093DD"/>
<path d="M10.0254 6.82296V1.8463e-07L14.2832 0L13.1844 6.79402L10.0254 6.82296Z" fill="#0093DD"/>
<path d="M31.7109 24.8219C30.0144 24.8219 28.3677 24.614 26.771 24.1982C25.1742 23.7824 23.8769 23.228 22.8789 22.535L24.8249 18.1987C25.763 18.8125 26.8508 19.3075 28.0883 19.6837C29.3257 20.0599 30.5433 20.248 31.7409 20.248C34.0162 20.248 35.1539 19.6837 35.1539 18.5551C35.1539 17.9611 34.8245 17.5254 34.1659 17.2482C33.5272 16.9512 32.4893 16.6444 31.0522 16.3275C29.4754 15.9909 28.1581 15.6345 27.1003 15.2583C26.0425 14.8623 25.1343 14.2386 24.3759 13.3872C23.6174 12.5358 23.2382 11.3873 23.2382 9.94185C23.2382 8.67464 23.5875 7.53616 24.286 6.52631C24.9846 5.49668 26.0225 4.68486 27.3997 4.09085C28.7968 3.49683 30.5034 3.19983 32.5193 3.19983C33.8965 3.19983 35.2536 3.35823 36.591 3.67504C37.9282 3.97205 39.1059 4.41756 40.1238 5.01157L38.2975 9.37758C36.3016 8.30833 34.3655 7.77374 32.4893 7.77374C31.3117 7.77374 30.4535 7.95196 29.9146 8.30833C29.3757 8.64496 29.1062 9.09044 29.1062 9.64484C29.1062 10.1993 29.4256 10.6151 30.0643 10.8923C30.7029 11.1695 31.7309 11.4566 33.1479 11.7536C34.7447 12.0902 36.062 12.4565 37.0999 12.8525C38.1578 13.2288 39.0659 13.8426 39.8244 14.694C40.6027 15.5256 40.992 16.6642 40.992 18.1096C40.992 19.357 40.6427 20.4856 39.9441 21.4954C39.2456 22.5052 38.1977 23.3171 36.8005 23.9309C35.4034 24.5249 33.7068 24.8219 31.7109 24.8219Z" fill="white"/>
<path d="M61.3042 19.8619V24.4061H44.4785V3.6156H60.915V8.15983H50.3465V11.6645H59.6575V16.0602H50.3465V19.8619H61.3042Z" fill="white"/>
<path d="M82.1678 19.8619V24.4061H65.3418V3.6156H81.7782V8.15983H71.2095V11.6645H80.5207V16.0602H71.2095V19.8619H82.1678Z" fill="white"/>
<path d="M105.127 24.4061L105.067 13.3871L99.6777 22.3567H97.0436L91.6839 13.6842V24.4061H86.2051V3.6156H91.0858L98.4505 15.6147L105.636 3.6156H110.516L110.575 24.4061H105.127Z" fill="white"/>
<path d="M129.56 20.3668H120.698L119.052 24.4061H113.004L122.255 3.6156H128.093L137.374 24.4061H131.207L129.56 20.3668ZM127.823 16.0305L125.13 9.37755L122.435 16.0305H127.823Z" fill="white"/>
</g>
<defs>
<clipPath id="clip0_1661_7452">
<rect width="137.375" height="28" fill="white"/>
</clipPath>
</defs>
</svg>
