<svg width="176" height="36" viewBox="0 0 176 36" fill="none" xmlns="http://www.w3.org/2000/svg">
<g id="topLogo">
<g id="Vector">
<path fill-rule="evenodd" clip-rule="evenodd" d="M14.3808 22.8697C14.3808 25.2885 12.3615 27.3333 9.93886 27.3333V36C17.2068 36 23.0986 30.1176 23.0986 22.8613L14.3808 22.8697Z" fill="#CC0000"/>
<path d="M23.0986 22.9069H14.3807V13.3103L23.0986 14.631V22.9069Z" fill="#CC0000"/>
<path d="M10.2898 27.3285V36H4.85042L6.25414 27.3285H10.2898Z" fill="#CC0000"/>
<path fill-rule="evenodd" clip-rule="evenodd" d="M8.79237 13.1243C8.79237 10.7056 10.7371 8.75916 13.1597 8.75916L13.1597 3.2461e-05C5.89182 3.11923e-05 1.27076e-06 5.88242 0 13.1387L8.79237 13.1243Z" fill="#0093DD"/>
<path d="M8.42585e-06 13.0871H8.79239V22.6094L8.42585e-06 21.299V13.0871Z" fill="#0093DD"/>
<path d="M12.8088 8.77238L12.8088 2.37382e-07L18.2482 0L16.8445 8.73518L12.8088 8.77238Z" fill="#0093DD"/>
<path d="M40.5117 31.9139C38.3443 31.9139 36.2407 31.6466 34.2008 31.1119C32.1609 30.5773 30.5035 29.8645 29.2286 28.9735L31.7147 23.3983C32.9131 24.1874 34.3028 24.8239 35.8837 25.3076C37.4646 25.7913 39.02 26.0331 40.5499 26.0331C43.4567 26.0331 44.9102 25.3076 44.9102 23.8565C44.9102 23.0928 44.4894 22.5327 43.648 22.1763C42.832 21.7944 41.5061 21.3998 39.6702 20.9925C37.6558 20.5597 35.9729 20.1015 34.6215 19.6178C33.2701 19.1086 32.1099 18.3067 31.141 17.212C30.172 16.1173 29.6875 14.6408 29.6875 12.7824C29.6875 11.1531 30.1338 9.68927 31.0262 8.39092C31.9187 7.06712 33.2446 6.02335 35.004 5.25962C36.7889 4.49589 38.969 4.11402 41.5444 4.11402C43.3038 4.11402 45.0377 4.31769 46.7461 4.72501C48.4545 5.10688 49.9589 5.67967 51.2593 6.4434L48.9262 12.0568C46.3763 10.6821 43.903 9.99476 41.5061 9.99476C40.0017 9.99476 38.9053 10.2239 38.2168 10.6821C37.5283 11.1149 37.1841 11.6877 37.1841 12.4005C37.1841 13.1133 37.5921 13.6479 38.408 14.0044C39.224 14.3608 40.5372 14.7299 42.3476 15.1118C44.3874 15.5445 46.0703 16.0155 47.3963 16.5247C48.7477 17.0084 49.9079 17.7976 50.8768 18.8922C51.8713 19.9615 52.3685 21.4253 52.3685 23.2837C52.3685 24.8875 51.9223 26.3386 51.0298 27.637C50.1374 28.9353 48.7987 29.9791 47.0138 30.7683C45.2289 31.532 43.0615 31.9139 40.5117 31.9139Z" fill="black"/>
<path d="M78.3181 25.5367V31.3792H56.8228V4.64864H77.8209V10.4912H64.3194V14.9972H76.2145V20.6488H64.3194V25.5367H78.3181Z" fill="black"/>
<path d="M104.972 25.5367V31.3792H83.4768V4.64864H104.475V10.4912H90.9733V14.9972H102.868V20.6488H90.9733V25.5367H104.972Z" fill="black"/>
<path d="M134.303 31.3792L134.227 17.212L127.342 28.7444H123.976L117.13 17.5939V31.3792H110.131V4.64864H116.365L125.774 20.076L134.953 4.64864H141.188L141.264 31.3792H134.303Z" fill="black"/>
<path d="M165.517 26.1859H154.196L152.092 31.3792H144.366L156.185 4.64864H163.643L175.5 31.3792H167.621L165.517 26.1859ZM163.299 20.6106L159.857 12.0568L156.414 20.6106H163.299Z" fill="black"/>
</g>
</g>
</svg>
